<svg width="367" height="367" viewBox="0 0 367 367" fill="none" xmlns="http://www.w3.org/2000/svg">
<path d="M342.697 232.091H222.402V162.478H342.697V232.091ZM223.136 231.357H341.963V163.212H223.136V231.357Z" fill="#E0E0E0"/>
<path d="M317.881 199.597H238.513V201.923H317.881V199.597Z" fill="#F0F0F0"/>
<path d="M323.349 208.272H238.513V210.812H323.349V208.272Z" fill="#F0F0F0"/>
<path d="M323.349 217.051H238.513V219.591H323.349V217.051Z" fill="#F0F0F0"/>
<path d="M266.251 186.994H238.513V193.035H266.251V186.994Z" fill="#F0F0F0"/>
<path d="M342.33 162.845H222.791V173.929H342.33V162.845Z" fill="#E0E0E0"/>
<path d="M333.133 172.27C332.979 172.123 334.52 170.266 336.568 168.123C338.616 165.979 340.414 164.357 340.561 164.497C340.708 164.636 339.174 166.501 337.126 168.651C335.078 170.802 333.28 172.417 333.133 172.27Z" fill="white"/>
<path d="M340.576 172.27C340.429 172.417 338.638 170.802 336.583 168.651C334.528 166.501 332.994 164.644 333.148 164.497C333.302 164.35 335.086 165.965 337.141 168.123C339.196 170.281 340.715 172.123 340.576 172.27Z" fill="white"/>
<path d="M194.672 24.9927H75.1323V93.8786H194.672V24.9927Z" fill="#E6E6E6"/>
<path d="M170.229 61.7514H90.8618V64.0782H170.229V61.7514Z" fill="#F0F0F0"/>
<path d="M175.698 70.4272H90.8618V72.9669H175.698V70.4272Z" fill="#F0F0F0"/>
<path d="M175.698 79.2059H90.8618V81.7456H175.698V79.2059Z" fill="#F0F0F0"/>
<path d="M118.6 49.1486H90.8618V55.1894H118.6V49.1486Z" fill="#F0F0F0"/>
<path d="M194.672 24.9927H75.1323V36.0761H194.672V24.9927Z" fill="#E0E0E0"/>
<path d="M185.071 34.3658C184.917 34.2264 186.458 32.362 188.506 30.2187C190.554 28.0754 192.352 26.4533 192.499 26.6001C192.646 26.7469 191.111 28.6039 189.064 30.7472C187.016 32.8905 185.217 34.4979 185.071 34.3658Z" fill="white"/>
<path d="M192.499 34.3659C192.352 34.5127 190.561 32.8979 188.506 30.7472C186.451 28.5966 184.917 26.7469 185.071 26.6001C185.225 26.4533 187.008 28.0681 189.064 30.2188C191.119 32.3694 192.653 34.2264 192.499 34.3659Z" fill="white"/>
<path d="M149.398 152.958H29.125V83.3383H149.398V152.958ZM29.859 152.224H148.664V84.0723H29.859V152.224Z" fill="#E0E0E0"/>
<path d="M124.589 120.464H45.2217V122.791H124.589V120.464Z" fill="#F0F0F0"/>
<path d="M130.057 129.14H45.2217V131.68H130.057V129.14Z" fill="#F0F0F0"/>
<path d="M130.057 137.919H45.2217V140.458H130.057V137.919Z" fill="#F0F0F0"/>
<path d="M72.9595 107.861H45.2217V113.902H72.9595V107.861Z" fill="#F0F0F0"/>
<path d="M149.031 83.7053H29.4922V94.7887H149.031V83.7053Z" fill="#E0E0E0"/>
<path d="M288.205 168.908H147.057V295.273H288.205V168.908Z" fill="#E6E6E6"/>
<path d="M154.155 129.103H43.585V243.982H154.155V129.103Z" fill="#F0F0F0"/>
<path d="M154.155 129.103H43.585V141.618H154.155V129.103Z" fill="#E0E0E0"/>
<path d="M52.7157 135.232C52.6956 135.686 52.5426 136.124 52.2758 136.492C52.0091 136.859 51.6402 137.14 51.215 137.3C50.7898 137.46 50.327 137.492 49.884 137.391C49.4411 137.29 49.0375 137.062 48.7233 136.734C48.4091 136.405 48.1982 135.992 48.1167 135.545C48.0352 135.099 48.0868 134.638 48.265 134.22C48.4431 133.802 48.7401 133.445 49.119 133.195C49.4979 132.944 49.942 132.81 50.3963 132.81C51.0245 132.825 51.621 133.089 52.0556 133.543C52.4902 133.996 52.7275 134.604 52.7157 135.232Z" fill="white"/>
<path d="M62.1331 135.232C62.1143 135.688 61.9619 136.129 61.6948 136.499C61.4277 136.869 61.0577 137.152 60.6308 137.313C60.2039 137.475 59.739 137.507 59.294 137.406C58.8489 137.305 58.4433 137.076 58.1277 136.746C57.8121 136.416 57.6003 136.001 57.5188 135.552C57.4374 135.103 57.4897 134.64 57.6694 134.221C57.8491 133.801 58.1482 133.444 58.5294 133.193C58.9107 132.942 59.3573 132.809 59.8136 132.81C60.4418 132.825 61.0384 133.089 61.473 133.543C61.9076 133.996 62.1449 134.604 62.1331 135.232Z" fill="white"/>
<path d="M71.55 135.232C71.5313 135.688 71.3789 136.129 71.1118 136.499C70.8447 136.869 70.4747 137.152 70.0478 137.313C69.6209 137.475 69.156 137.507 68.711 137.406C68.2659 137.305 67.8603 137.076 67.5447 136.746C67.2291 136.416 67.0173 136.001 66.9358 135.552C66.8543 135.103 66.9067 134.64 67.0864 134.221C67.2661 133.801 67.5651 133.444 67.9464 133.193C68.3276 132.942 68.7742 132.809 69.2306 132.81C69.8588 132.825 70.4554 133.089 70.89 133.543C71.3246 133.996 71.5619 134.604 71.55 135.232Z" fill="white"/>
<path d="M326.909 50.1175H185.761V190.796H326.909V50.1175Z" fill="#F0F0F0"/>
<path d="M326.909 50.1175H185.761V66.5958H326.909V50.1175Z" fill="#E0E0E0"/>
<path d="M197.784 58.1915C197.758 58.7906 197.557 59.3688 197.205 59.8545C196.853 60.3401 196.367 60.7118 195.806 60.9234C195.245 61.1349 194.634 61.177 194.049 61.0444C193.464 60.9118 192.931 60.6103 192.516 60.1775C192.101 59.7446 191.823 59.1994 191.715 58.6096C191.607 58.0197 191.675 57.4112 191.91 56.8596C192.145 56.3079 192.537 55.8375 193.037 55.5067C193.537 55.1758 194.123 54.9992 194.723 54.9986C195.552 55.0179 196.339 55.3646 196.913 55.963C197.486 56.5614 197.8 57.3627 197.784 58.1915Z" fill="white"/>
<path d="M209.286 56.0336C209.692 56.4754 209.96 57.0273 210.056 57.6204C210.151 58.2135 210.07 58.8215 209.822 59.3688C209.575 59.9161 209.172 60.3784 208.663 60.6981C208.154 61.0178 207.563 61.1809 206.963 61.1668C206.362 61.1528 205.779 60.9624 205.286 60.6193C204.793 60.2762 204.411 59.7956 204.19 59.2374C203.968 58.6791 203.915 58.0679 204.038 57.48C204.161 56.892 204.454 56.3532 204.882 55.9308C205.48 55.3615 206.279 55.0527 207.105 55.072C207.93 55.0912 208.715 55.437 209.286 56.0336Z" fill="white"/>
<path d="M222.578 58.1915C222.552 58.7906 222.351 59.3688 221.999 59.8545C221.648 60.3401 221.161 60.7118 220.6 60.9234C220.039 61.1349 219.428 61.177 218.843 61.0444C218.259 60.9118 217.726 60.6103 217.311 60.1775C216.896 59.7446 216.617 59.1994 216.509 58.6096C216.402 58.0197 216.469 57.4112 216.704 56.8596C216.939 56.3079 217.331 55.8375 217.831 55.5067C218.332 55.1758 218.918 54.9992 219.517 54.9986C220.346 55.0179 221.133 55.3646 221.707 55.963C222.281 56.5614 222.594 57.3627 222.578 58.1915Z" fill="white"/>
<path d="M296.419 332.597C296.419 332.7 245.45 332.788 182.597 332.788C119.745 332.788 68.7539 332.7 68.7539 332.597C68.7539 332.495 119.716 332.407 182.597 332.407C245.479 332.407 296.419 332.502 296.419 332.597Z" fill="#263238"/>
<path d="M246.756 242.741C235.416 234.821 232.847 220.119 233.295 206.9C233.368 204.698 233.126 202.364 234.176 200.433C235.225 198.503 237.677 197.174 239.651 198.099C241.288 198.87 242 200.778 242.918 202.356C244.142 204.458 245.936 206.171 248.092 207.296C249.494 208.03 251.234 208.471 252.621 207.707C254.529 206.658 254.75 204.037 254.735 201.835C254.735 197.74 254.71 193.649 254.662 189.563C254.53 187.369 254.753 185.168 255.322 183.045C256.005 180.96 257.524 179.03 259.601 178.443C261.679 177.856 264.27 179.067 264.739 181.21C264.82 182.118 264.842 183.03 264.805 183.94C264.864 184.858 265.29 185.864 266.149 186.142C267.007 186.421 267.903 185.783 268.563 185.137C270.824 182.935 272.366 180.065 273.797 177.232C275.228 174.398 276.63 171.484 278.685 169.07C280.741 166.655 283.581 164.739 286.759 164.555C289.938 164.372 293.248 166.324 294.041 169.407C294.833 172.49 293.035 175.639 291.105 178.142C288.192 181.857 284.758 185.133 280.909 187.867C280.158 188.277 279.559 188.918 279.199 189.695C278.722 191.163 280.109 192.631 281.555 193.093C283.192 193.637 284.968 193.468 286.693 193.673C288.418 193.879 290.253 194.627 290.906 196.242C291.802 198.488 289.923 200.837 288.081 202.379C284.381 205.461 280.181 207.887 275.661 209.55C274.046 210.137 272.351 210.658 271.044 211.788C269.738 212.919 268.96 214.893 269.745 216.442C270.531 217.991 272.549 218.482 274.245 218.167C275.94 217.851 277.445 216.941 279.06 216.332C282.076 215.194 285.967 215.4 287.868 218.005C288.457 218.903 288.829 219.925 288.957 220.991C289.084 222.057 288.963 223.138 288.602 224.149C287.867 226.161 286.736 228.006 285.277 229.573C280.469 235.317 274.223 239.681 267.176 242.22C260.181 244.642 253.7 245.303 246.749 242.756" fill="#F26E23"/>
<path d="M290.811 166.368C290.811 166.368 290.745 166.442 290.598 166.574L289.945 167.154C289.372 167.668 288.528 168.416 287.464 169.407C284.446 172.209 281.644 175.234 279.082 178.457C277.445 180.491 275.749 182.795 273.944 185.298C272.138 187.801 270.274 190.502 268.424 193.372C266.452 196.399 264.646 199.53 263.014 202.753C262.163 204.434 261.414 206.188 260.644 207.979L258.368 213.447C255.369 220.335 252.757 227.385 250.544 234.564C248.761 240.438 247.533 246.466 246.874 252.569C246.447 256.688 246.378 260.836 246.668 264.967C246.786 266.435 246.896 267.558 246.999 268.321C247.043 268.688 247.072 268.982 247.101 269.195V269.495C247.07 269.4 247.048 269.302 247.035 269.202C246.999 268.989 246.954 268.703 246.896 268.336C246.764 267.602 246.624 266.442 246.492 264.974C246.138 260.836 246.162 256.674 246.565 252.54C247.183 246.411 248.385 240.355 250.155 234.454C252.349 227.255 254.954 220.187 257.957 213.286L260.291 207.839C261.062 206.056 261.818 204.287 262.677 202.599C264.32 199.366 266.14 196.227 268.13 193.196C270.009 190.26 271.903 187.603 273.687 185.122C275.47 182.641 277.195 180.322 278.825 178.296C281.413 175.081 284.253 172.077 287.317 169.312C288.403 168.336 289.27 167.602 289.857 167.11L290.539 166.559C290.623 166.486 290.714 166.422 290.811 166.368Z" fill="#263238"/>
<path d="M262.772 202.584C262.668 202.282 262.597 201.969 262.559 201.652C262.442 201.043 262.31 200.184 262.155 199.068C261.84 196.866 261.517 193.849 261.172 190.51C260.827 187.17 260.438 184.146 260.115 181.966C259.946 180.88 259.799 180.006 259.697 179.397C259.616 179.085 259.574 178.765 259.572 178.443C259.698 178.737 259.789 179.045 259.843 179.36C260.005 179.962 260.188 180.828 260.394 181.922C260.812 184.124 261.223 187.119 261.568 190.466C261.913 193.813 262.207 196.749 262.434 199.031C262.544 200.059 262.64 200.933 262.713 201.63C262.77 201.944 262.79 202.265 262.772 202.584Z" fill="#263238"/>
<path d="M291.017 197.314C290.659 197.392 290.296 197.436 289.93 197.446C289.196 197.512 288.154 197.6 286.862 197.747C284.278 198.026 280.726 198.54 276.828 199.274C272.931 200.008 269.43 200.837 266.912 201.476C265.657 201.799 264.644 202.092 263.976 202.29C263.619 202.417 263.25 202.506 262.875 202.555C263.214 202.384 263.568 202.244 263.932 202.136C264.622 201.894 265.62 201.556 266.868 201.197C269.371 200.463 272.872 199.589 276.784 198.841C280.098 198.207 283.442 197.741 286.803 197.446C288.103 197.336 289.152 197.292 289.886 197.277C290.263 197.252 290.642 197.264 291.017 197.314Z" fill="#263238"/>
<path d="M250.514 233.94C250.436 233.834 250.372 233.718 250.324 233.596L249.839 232.575C249.421 231.687 248.856 230.373 248.18 228.766C246.815 225.536 245.075 221.015 243.226 215.994C241.376 210.974 239.673 206.452 238.381 203.186C237.75 201.6 237.229 200.301 236.84 199.332L236.429 198.283C236.372 198.162 236.332 198.033 236.312 197.901C236.39 198.007 236.454 198.123 236.502 198.246L236.987 199.266C237.398 200.154 237.97 201.468 238.646 203.076C240.011 206.305 241.75 210.827 243.6 215.847C245.45 220.868 247.153 225.389 248.445 228.656C249.076 230.241 249.597 231.54 249.979 232.509C250.147 232.928 250.287 233.243 250.397 233.559C250.454 233.68 250.493 233.808 250.514 233.94Z" fill="#263238"/>
<path d="M288.007 221.852C287.89 221.919 287.764 221.971 287.633 222.006L286.547 222.373L282.532 223.672C279.141 224.773 274.458 226.344 269.32 228.076C264.182 229.808 259.477 231.349 256.064 232.377C254.361 232.898 252.974 233.295 252.012 233.559L250.904 233.845C250.775 233.886 250.642 233.913 250.507 233.926C250.625 233.858 250.751 233.807 250.882 233.772L251.968 233.405L255.983 232.105C259.374 231.004 264.057 229.434 269.195 227.701C274.333 225.969 279.031 224.428 282.444 223.4C284.154 222.879 285.534 222.483 286.503 222.219L287.611 221.932C287.74 221.891 287.873 221.864 288.007 221.852Z" fill="#263238"/>
<path d="M272.71 43.8051L268.93 45.1557L267.308 40.2159C264.328 31.1069 254.83 26.2699 246.103 29.3453C237.376 32.4208 232.729 42.4105 235.709 51.5195L237.331 56.4593L233.537 57.8172C232.09 58.3784 230.915 59.4757 230.256 60.881C229.597 62.2863 229.505 63.8914 229.999 65.3627L240.517 97.5046C240.735 98.2329 241.098 98.91 241.583 99.4955C242.068 100.081 242.666 100.563 243.341 100.913C244.016 101.263 244.755 101.473 245.513 101.532C246.271 101.591 247.033 101.497 247.754 101.255L286.928 87.2432C288.394 86.683 289.586 85.576 290.252 84.155C290.919 82.7341 291.009 81.11 290.502 79.6243L279.977 47.4825C279.753 46.7561 279.385 46.0824 278.895 45.5014C278.405 44.9204 277.803 44.4441 277.124 44.1009C276.446 43.7577 275.706 43.5546 274.947 43.5038C274.189 43.453 273.428 43.5555 272.71 43.8051ZM242.851 48.9431C242.048 46.5747 242.192 43.9872 243.254 41.7227C244.315 39.4582 246.212 37.6925 248.547 36.7954C249.7 36.401 250.92 36.2428 252.136 36.3304C253.351 36.4179 254.536 36.7493 255.62 37.3049C256.705 37.8604 257.666 38.6287 258.447 39.5639C259.228 40.4992 259.813 41.5821 260.166 42.7482L261.781 47.688L244.466 53.883L242.851 48.9431ZM264.871 77.4664L267.558 85.6725C267.607 85.837 267.591 86.0143 267.513 86.1673C267.435 86.3204 267.301 86.4376 267.139 86.4946L263.374 87.8378C263.224 87.8793 263.064 87.8613 262.927 87.7874C262.79 87.7135 262.687 87.5895 262.64 87.4414L259.931 79.272C258.438 79.1906 257.005 78.655 255.824 77.7367C254.644 76.8185 253.772 75.5615 253.325 74.134C252.687 72.2468 252.803 70.1859 253.65 68.3826C254.497 66.5794 256.009 65.1737 257.869 64.4599C258.787 64.1461 259.759 64.0205 260.727 64.0904C261.695 64.1603 262.639 64.4243 263.503 64.8668C264.366 65.3093 265.132 65.9211 265.754 66.6658C266.377 67.4106 266.843 68.2729 267.125 69.2015C267.597 70.6516 267.636 72.2079 267.237 73.6798C266.838 75.1517 266.018 76.4753 264.878 77.4884L264.871 77.4664Z" fill="#F26E23"/>
<path d="M268.761 45.0676C268.761 45.1704 261.752 47.8054 253.032 50.9396C244.312 54.0738 237.199 56.5914 237.163 56.518C237.126 56.4446 244.172 53.7875 252.9 50.646C261.627 47.5045 268.725 44.9722 268.761 45.0676Z" fill="#263238"/>
<path d="M277.085 46.4182C277.117 46.4819 277.144 46.5481 277.165 46.6163C277.224 46.7631 277.29 46.954 277.378 47.1889C277.569 47.7247 277.833 48.466 278.164 49.3909L280.982 57.597C282.157 61.0761 283.559 65.2012 285.115 69.7814C285.849 72.0788 286.715 74.4716 287.522 76.9893C287.954 78.2866 288.141 79.6532 288.073 81.0189C288.01 81.7292 287.808 82.4202 287.478 83.0521C287.125 83.6819 286.654 84.2377 286.091 84.6889C284.957 85.5167 283.698 86.1584 282.362 86.59L278.582 87.9479L271.426 90.5095L259.307 94.8255L251.123 97.7027L248.921 98.4367L248.334 98.6276C248.271 98.6555 248.204 98.6729 248.136 98.679C248.136 98.679 248.194 98.679 248.319 98.5909L248.892 98.3633L251.094 97.5339L259.234 94.5392L271.33 90.1352L278.472 87.5515L282.252 86.1863C283.55 85.7723 284.772 85.1501 285.871 84.3439C286.395 83.9252 286.834 83.4093 287.163 82.8246C287.473 82.2401 287.661 81.598 287.713 80.9382C287.781 79.6222 287.601 78.3053 287.185 77.0553C286.392 74.5597 285.555 72.1449 284.799 69.8474C283.272 65.2599 281.863 61.1202 280.747 57.641C279.632 54.1618 278.692 51.3653 278.046 49.3982C277.738 48.4367 277.503 47.688 277.312 47.1448L277.136 46.5576C277.114 46.5131 277.097 46.4664 277.085 46.4182Z" fill="#263238"/>
<path d="M256.415 36.2963C256.415 36.2963 256.026 36.1055 255.307 35.8119C254.282 35.4179 253.197 35.1995 252.099 35.1659C250.472 35.1101 248.853 35.416 247.358 36.0614C245.54 36.8651 243.986 38.1651 242.873 39.8122C241.753 41.4545 241.152 43.3954 241.148 45.3832C241.164 47.0125 241.411 48.6313 241.882 50.1909C242.264 51.5268 242.66 52.5911 242.924 53.3325C243.08 53.709 243.208 54.0966 243.306 54.4922C243.098 54.1401 242.923 53.769 242.785 53.3838C242.484 52.6498 242.051 51.6076 241.625 50.2643C241.103 48.6883 240.818 47.0432 240.781 45.3832C240.762 43.3203 241.377 41.3011 242.543 39.5993C243.694 37.8921 245.312 36.5519 247.204 35.7385C248.745 35.0895 250.415 34.8032 252.085 34.9017C253.207 34.9589 254.308 35.22 255.336 35.6724C255.611 35.7992 255.876 35.9464 256.129 36.1128C256.234 36.1587 256.33 36.2206 256.415 36.2963Z" fill="#263238"/>
<path d="M256.753 65.0177C256.87 64.9467 256.993 64.8854 257.12 64.8342C257.488 64.6684 257.868 64.5334 258.258 64.4305C258.876 64.2479 259.515 64.1395 260.159 64.1076C261.035 64.0605 261.912 64.1928 262.735 64.4966C264.614 65.1572 266.339 67.0729 267.191 69.6346C267.599 71.0093 267.599 72.473 267.191 73.8477C266.738 75.3398 265.926 76.6982 264.827 77.804L264.871 77.6058C265.847 80.2849 266.912 83.1916 268.013 86.223L268.079 86.4065L267.895 86.4725L266.214 87.0304L262.544 88.2562L262.361 88.3149L262.302 88.1314C261.297 85.0926 260.196 82.2594 259.366 79.4775L259.528 79.6023C258.093 79.4831 256.725 78.9445 255.593 78.0536C254.57 77.2653 253.731 76.2634 253.135 75.1176C252.596 74.1014 252.328 72.964 252.356 71.8146C252.39 70.6397 252.684 69.487 253.215 68.4388C253.747 67.3907 254.504 66.4731 255.432 65.7517C255.814 65.4417 256.242 65.1939 256.702 65.0177C256.287 65.2637 255.885 65.5307 255.498 65.8178C254.479 66.6801 253.698 67.7896 253.23 69.04C252.828 69.983 252.641 71.0031 252.68 72.0272C252.719 73.0514 252.985 74.0541 253.457 74.9634C254.044 76.0657 254.863 77.0274 255.858 77.782C256.937 78.6288 258.241 79.1394 259.608 79.25H259.733L259.77 79.3601C260.577 82.0906 261.686 84.9458 262.706 87.9993L262.464 87.8818L266.134 86.656L267.807 86.0909L267.69 86.3404C266.596 83.309 265.539 80.395 264.57 77.7159V77.6058L264.658 77.5177C265.725 76.4578 266.521 75.156 266.978 73.723C267.367 72.4079 267.367 71.0083 266.978 69.6933C266.178 67.2271 264.526 65.3554 262.735 64.6948C261.942 64.3891 261.096 64.2468 260.247 64.2764C259.613 64.2909 258.983 64.3771 258.368 64.5333C257.274 64.8049 256.76 65.0544 256.753 65.0177Z" fill="#263238"/>
<path d="M234.065 276.953L160.746 276.615C156.512 276.592 152.46 274.889 149.481 271.881C146.501 268.872 144.838 264.804 144.855 260.57L145.633 76.7691C145.642 74.6713 146.064 72.5959 146.875 70.6613C147.686 68.7268 148.871 66.9711 150.361 65.4946C151.851 64.0181 153.618 62.8497 155.559 62.0563C157.501 61.2629 159.581 60.86 161.678 60.8706L234.99 61.2083C239.224 61.2296 243.277 62.9306 246.258 65.9377C249.239 68.9448 250.904 73.012 250.889 77.2462L250.111 261.04C250.102 263.138 249.68 265.214 248.869 267.15C248.058 269.085 246.874 270.842 245.384 272.319C243.894 273.797 242.128 274.967 240.185 275.762C238.243 276.557 236.164 276.962 234.065 276.953Z" fill="#455A64"/>
<path d="M234.88 67.528H220.67C220.207 67.5366 219.749 67.6365 219.324 67.8219C218.899 68.0073 218.515 68.2746 218.193 68.6086C217.871 68.9426 217.618 69.3367 217.449 69.7684C217.28 70.2001 217.197 70.661 217.206 71.1246V73.701C217.214 74.1643 217.132 74.6247 216.962 75.056C216.793 75.4873 216.54 75.8809 216.218 76.2143C215.896 76.5477 215.512 76.8144 215.087 76.999C214.662 77.1836 214.205 77.2826 213.741 77.2902L186.04 77.1654C185.103 77.1404 184.214 76.7446 183.569 76.0647C182.923 75.3849 182.574 74.4766 182.598 73.5395V70.9631C182.621 70.0272 182.273 69.1201 181.629 68.4404C180.985 67.7608 180.098 67.3641 179.163 67.3372H174.164L161.723 67.2785C158.763 67.2608 155.918 68.4165 153.809 70.4925C151.7 72.5684 150.5 75.3954 150.47 78.3545L149.736 257.759C149.73 259.227 150.012 260.682 150.568 262.041C151.123 263.4 151.941 264.636 152.974 265.678C154.008 266.721 155.236 267.55 156.59 268.118C157.944 268.686 159.396 268.982 160.864 268.989L234.029 269.327C235.498 269.333 236.954 269.051 238.314 268.495C239.673 267.939 240.91 267.121 241.954 266.087C242.997 265.053 243.827 263.823 244.395 262.469C244.964 261.114 245.26 259.661 245.267 258.192L246.001 78.7876C246.018 75.8201 244.857 72.9671 242.771 70.8558C240.686 68.7444 237.848 67.5474 234.88 67.528Z" fill="white"/>
<path d="M225.037 245.391L170.633 245.156C170.068 245.156 169.613 244.539 169.62 243.791L169.679 229.559C169.679 228.825 170.141 228.193 170.707 228.193L225.111 228.443C225.424 228.497 225.704 228.67 225.893 228.926C226.081 229.181 226.164 229.5 226.124 229.815L226.072 244.033C226.072 244.789 225.602 245.398 225.037 245.391Z" fill="#F26E23"/>
<g opacity="0.2" clip-path="url(#clip0_288_812)">
<rect x="185.401" y="232.422" width="25.69" height="8.13129" rx="4.06564" fill="#E8E8E3"/>
<rect x="185.401" y="231.631" width="9.31" height="8.13129" rx="4.06564" fill="#E8E8E3"/>
</g>
<path d="M181.485 120.266L162.606 120.18L162.591 123.645L181.469 123.731L181.485 120.266Z" fill="#F26E23"/>
<path opacity="0.1" d="M181.485 120.266L162.606 120.18L162.591 123.645L181.469 123.731L181.485 120.266Z" fill="black"/>
<path d="M236.825 141.537C236.974 141.522 237.119 141.488 237.258 141.434C237.462 141.355 237.638 141.22 237.768 141.045C237.898 140.869 237.976 140.661 237.992 140.444C237.992 139.277 237.992 137.574 237.992 135.386C237.992 134.293 237.992 133.067 237.992 131.716C237.992 131.386 237.992 131.041 237.992 130.696C238.04 130.361 237.967 130.02 237.787 129.735C237.686 129.597 237.554 129.486 237.403 129.408C237.251 129.33 237.084 129.289 236.913 129.287H235.768H225.162L163.77 129.059C163.613 129.057 163.458 129.092 163.317 129.162C163.177 129.232 163.055 129.336 162.963 129.463C162.786 129.75 162.718 130.091 162.772 130.424C162.772 131.158 162.772 131.892 162.772 132.626C162.772 134.094 162.772 135.562 162.772 137.03C162.772 137.764 162.772 138.498 162.772 139.232C162.742 139.574 162.742 139.918 162.772 140.26C162.811 140.407 162.882 140.542 162.982 140.657C163.081 140.771 163.205 140.862 163.345 140.921C163.489 140.978 163.644 141.006 163.8 141.001H167.536L183.838 141.09L211.436 141.258L230.043 141.405L235.1 141.464H236.414C236.715 141.464 236.862 141.464 236.862 141.464H236.414H235.1H230.043H211.436L183.838 141.376L167.536 141.31H163.8C163.594 141.318 163.389 141.283 163.198 141.207C163.005 141.124 162.833 140.999 162.695 140.84C162.558 140.681 162.459 140.493 162.405 140.289C162.363 140.097 162.348 139.899 162.361 139.702V139.159C162.361 138.425 162.361 137.691 162.361 136.957C162.361 135.489 162.361 134.021 162.361 132.553C162.361 131.819 162.361 131.085 162.361 130.351C162.347 130.156 162.347 129.959 162.361 129.764C162.389 129.548 162.472 129.343 162.603 129.169C162.73 128.992 162.898 128.848 163.092 128.75C163.286 128.651 163.501 128.601 163.719 128.604L225.111 128.942L235.717 129.015H236.862C237.064 129.015 237.263 129.064 237.441 129.157C237.62 129.251 237.774 129.386 237.89 129.551C238.097 129.87 238.18 130.254 238.125 130.63C238.125 130.975 238.125 131.32 238.125 131.65C238.125 132.986 238.125 134.212 238.125 135.32C238.125 137.522 238.073 139.21 238.059 140.385C238.041 140.611 237.958 140.827 237.822 141.007C237.685 141.188 237.5 141.326 237.288 141.405C237.149 141.491 236.989 141.537 236.825 141.537Z" fill="#E0E0E0"/>
<path d="M202.804 132.744H168.277V135.981H202.804V132.744Z" fill="#F26E23"/>
<path opacity="0.2" d="M202.804 132.744H168.277V135.981H202.804V132.744Z" fill="white"/>
<path d="M181.356 151.871L162.478 151.785L162.462 155.25L181.34 155.336L181.356 151.871Z" fill="#F26E23"/>
<path opacity="0.1" d="M181.356 151.871L162.478 151.785L162.462 155.25L181.34 155.336L181.356 151.871Z" fill="black"/>
<path d="M236.348 173.143C236.497 173.125 236.644 173.098 236.789 173.063C236.994 172.997 237.182 172.889 237.342 172.744C237.501 172.6 237.628 172.423 237.713 172.226C237.829 171.929 237.874 171.61 237.846 171.294C237.846 170.941 237.846 170.56 237.846 170.134C237.846 169.282 237.846 168.314 237.846 167.198V162.537C237.881 162.2 237.806 161.86 237.633 161.568C237.452 161.269 237.167 161.047 236.833 160.944C236.467 160.879 236.095 160.859 235.724 160.885H225.162L163.983 160.658C163.654 160.659 163.337 160.779 163.089 160.996C162.842 161.214 162.683 161.513 162.64 161.84C162.64 162.537 162.64 163.308 162.64 164.042C162.64 165.51 162.64 166.978 162.64 168.446C162.64 169.18 162.64 169.914 162.64 170.648C162.613 170.991 162.627 171.336 162.684 171.675C162.776 171.973 162.964 172.231 163.22 172.409C163.491 172.581 163.809 172.664 164.13 172.644H165.15H167.272L183.515 172.725L211.018 172.894L229.559 173.04L234.601 173.099H229.559H211.018L183.5 173.07L167.257 173.011H164.064C163.667 173.035 163.273 172.929 162.941 172.71C162.607 172.479 162.363 172.139 162.251 171.749C162.185 171.376 162.165 170.996 162.192 170.618C162.192 169.884 162.192 169.15 162.192 168.416C162.192 166.948 162.192 165.48 162.192 164.012C162.192 163.278 162.192 162.544 162.192 161.81C162.246 161.391 162.45 161.005 162.768 160.725C163.085 160.445 163.494 160.291 163.917 160.291L225.096 160.629L235.658 160.709C236.052 160.685 236.446 160.712 236.833 160.79C237.214 160.915 237.536 161.176 237.736 161.524C237.925 161.847 238.008 162.223 237.97 162.596C237.97 162.941 237.97 163.278 237.97 163.616C237.97 164.944 237.97 166.163 237.97 167.286C237.97 168.409 237.97 169.356 237.97 170.222C237.97 170.64 237.97 171.029 237.97 171.389C237.997 171.717 237.944 172.047 237.816 172.351C237.721 172.553 237.583 172.733 237.412 172.877C237.241 173.021 237.041 173.127 236.825 173.187C236.665 173.201 236.504 173.186 236.348 173.143Z" fill="#E0E0E0"/>
<path d="M181.214 184.849L162.335 184.763L162.32 188.228L181.198 188.313L181.214 184.849Z" fill="#F26E23"/>
<path opacity="0.1" d="M181.214 184.849L162.335 184.763L162.32 188.228L181.198 188.313L181.214 184.849Z" fill="black"/>
<path d="M236.202 206.107C236.35 206.09 236.497 206.063 236.642 206.026C236.846 205.962 237.034 205.854 237.194 205.711C237.353 205.568 237.48 205.393 237.567 205.197C237.682 204.901 237.727 204.582 237.699 204.265C237.699 203.905 237.699 203.531 237.699 203.098C237.699 202.254 237.699 201.278 237.699 200.162V195.501C237.734 195.163 237.659 194.824 237.486 194.532C237.301 194.238 237.017 194.02 236.686 193.915C236.321 193.848 235.949 193.825 235.578 193.849H225.015L163.837 193.622C163.508 193.623 163.19 193.743 162.943 193.96C162.696 194.178 162.536 194.477 162.493 194.804C162.493 195.538 162.493 196.272 162.493 197.006C162.493 198.474 162.493 199.942 162.493 201.41C162.493 202.144 162.493 202.878 162.493 203.612C162.466 203.952 162.481 204.295 162.537 204.632C162.625 204.931 162.815 205.191 163.073 205.366C163.343 205.542 163.662 205.624 163.983 205.601H167.176L183.42 205.689L210.923 205.858L229.464 206.004L234.506 206.063H229.464H210.923L183.42 205.982L167.176 205.916H163.983C163.586 205.943 163.191 205.837 162.86 205.615C162.526 205.384 162.283 205.044 162.17 204.654C162.105 204.281 162.085 203.901 162.112 203.524C162.112 202.79 162.112 202.056 162.112 201.322C162.112 199.854 162.112 198.386 162.112 196.918C162.112 196.184 162.112 195.45 162.112 194.679C162.164 194.26 162.367 193.874 162.683 193.594C162.999 193.314 163.407 193.16 163.829 193.159L225.008 193.497L235.57 193.578C235.964 193.554 236.358 193.581 236.745 193.659C237.126 193.783 237.448 194.045 237.648 194.393C237.837 194.716 237.92 195.091 237.882 195.464C237.882 195.809 237.882 196.154 237.882 196.484C237.882 197.813 237.882 199.031 237.882 200.154C237.882 201.277 237.882 202.224 237.882 203.09C237.882 203.509 237.882 203.898 237.882 204.258C237.911 204.586 237.858 204.916 237.728 205.219C237.633 205.422 237.495 205.601 237.324 205.746C237.153 205.89 236.953 205.996 236.737 206.056C236.565 206.115 236.382 206.132 236.202 206.107Z" fill="#E0E0E0"/>
<path d="M202.068 165.265L167.541 165.108L167.526 168.345L202.053 168.502L202.068 165.265Z" fill="#F26E23"/>
<path opacity="0.2" d="M202.068 165.265L167.541 165.108L167.526 168.345L202.053 168.502L202.068 165.265Z" fill="white"/>
<path d="M170.663 200.118C170.641 200.413 170.533 200.695 170.352 200.93C170.172 201.164 169.926 201.341 169.646 201.437C169.366 201.533 169.064 201.545 168.778 201.471C168.491 201.398 168.232 201.241 168.034 201.022C167.835 200.802 167.705 200.529 167.66 200.237C167.615 199.944 167.657 199.645 167.781 199.376C167.904 199.107 168.104 198.88 168.356 198.723C168.607 198.567 168.899 198.488 169.195 198.496C169.604 198.518 169.987 198.701 170.262 199.005C170.537 199.309 170.681 199.709 170.663 200.118Z" fill="#F26E23"/>
<path d="M175.338 200.14C175.353 200.347 175.324 200.554 175.255 200.75C175.186 200.945 175.077 201.125 174.936 201.276C174.794 201.428 174.623 201.549 174.433 201.632C174.243 201.714 174.037 201.757 173.83 201.757C173.622 201.757 173.417 201.714 173.227 201.632C173.037 201.549 172.866 201.428 172.724 201.276C172.583 201.125 172.474 200.945 172.405 200.75C172.335 200.554 172.307 200.347 172.322 200.14C172.307 199.933 172.335 199.725 172.405 199.53C172.474 199.334 172.583 199.155 172.724 199.003C172.866 198.852 173.037 198.731 173.227 198.648C173.417 198.565 173.622 198.522 173.83 198.522C174.037 198.522 174.243 198.565 174.433 198.648C174.623 198.731 174.794 198.852 174.936 199.003C175.077 199.155 175.186 199.334 175.255 199.53C175.324 199.725 175.353 199.933 175.338 200.14Z" fill="#F26E23"/>
<path d="M180.021 200.162C179.999 200.457 179.891 200.739 179.711 200.974C179.53 201.208 179.285 201.385 179.005 201.481C178.725 201.577 178.423 201.589 178.136 201.515C177.849 201.442 177.591 201.285 177.392 201.066C177.193 200.846 177.063 200.573 177.018 200.281C176.974 199.988 177.016 199.689 177.139 199.42C177.263 199.151 177.463 198.924 177.714 198.767C177.965 198.611 178.257 198.532 178.553 198.54C178.961 198.564 179.344 198.748 179.618 199.051C179.892 199.354 180.037 199.753 180.021 200.162Z" fill="#F26E23"/>
<path d="M184.697 200.184C184.675 200.479 184.567 200.761 184.387 200.996C184.206 201.231 183.96 201.407 183.68 201.503C183.4 201.599 183.098 201.611 182.812 201.537C182.525 201.464 182.266 201.307 182.068 201.088C181.869 200.868 181.739 200.595 181.694 200.303C181.649 200.01 181.691 199.711 181.815 199.442C181.939 199.173 182.138 198.946 182.39 198.79C182.641 198.633 182.933 198.554 183.229 198.562C183.637 198.586 184.019 198.77 184.294 199.073C184.568 199.376 184.713 199.775 184.697 200.184Z" fill="#F26E23"/>
<path d="M189.372 200.199C189.352 200.494 189.245 200.777 189.065 201.013C188.885 201.248 188.64 201.426 188.36 201.523C188.08 201.621 187.778 201.634 187.491 201.561C187.204 201.487 186.944 201.332 186.745 201.112C186.545 200.893 186.415 200.62 186.369 200.327C186.324 200.034 186.366 199.734 186.489 199.465C186.613 199.196 186.813 198.968 187.064 198.812C187.316 198.655 187.608 198.576 187.904 198.584C188.311 198.608 188.692 198.791 188.966 199.093C189.241 199.394 189.386 199.791 189.372 200.199Z" fill="#F26E23"/>
<path d="M194.055 200.221C194.035 200.515 193.93 200.797 193.751 201.031C193.573 201.266 193.33 201.444 193.052 201.543C192.775 201.641 192.474 201.657 192.188 201.587C191.901 201.517 191.641 201.364 191.44 201.149C191.239 200.933 191.106 200.663 191.056 200.372C191.007 200.082 191.043 199.783 191.161 199.513C191.279 199.243 191.473 199.013 191.72 198.852C191.967 198.69 192.256 198.605 192.551 198.606C192.964 198.621 193.354 198.8 193.637 199.102C193.919 199.405 194.069 199.807 194.055 200.221Z" fill="#F26E23"/>
<path d="M198.731 200.243C198.745 200.449 198.717 200.657 198.648 200.853C198.578 201.048 198.47 201.227 198.328 201.379C198.187 201.531 198.016 201.652 197.825 201.735C197.635 201.817 197.43 201.86 197.222 201.86C197.015 201.86 196.81 201.817 196.62 201.735C196.429 201.652 196.258 201.531 196.117 201.379C195.975 201.227 195.866 201.048 195.797 200.853C195.728 200.657 195.7 200.449 195.714 200.243C195.7 200.036 195.728 199.828 195.797 199.632C195.866 199.437 195.975 199.258 196.117 199.106C196.258 198.954 196.429 198.833 196.62 198.751C196.81 198.668 197.015 198.625 197.222 198.625C197.43 198.625 197.635 198.668 197.825 198.751C198.016 198.833 198.187 198.954 198.328 199.106C198.47 199.258 198.578 199.437 198.648 199.632C198.717 199.828 198.745 200.036 198.731 200.243Z" fill="#F26E23"/>
<path d="M203.406 200.265C203.386 200.559 203.281 200.841 203.103 201.076C202.924 201.31 202.681 201.488 202.404 201.587C202.126 201.685 201.825 201.701 201.539 201.631C201.252 201.561 200.993 201.408 200.792 201.193C200.591 200.977 200.457 200.707 200.407 200.417C200.358 200.126 200.394 199.827 200.512 199.557C200.63 199.287 200.824 199.057 201.071 198.896C201.318 198.734 201.607 198.649 201.902 198.65C202.315 198.665 202.706 198.844 202.988 199.146C203.27 199.449 203.42 199.851 203.406 200.265Z" fill="#F26E23"/>
<path d="M208.082 200.287C208.062 200.582 207.955 200.865 207.775 201.101C207.595 201.337 207.35 201.514 207.07 201.611C206.79 201.709 206.488 201.722 206.201 201.649C205.914 201.576 205.654 201.42 205.455 201.2C205.255 200.981 205.125 200.708 205.079 200.415C205.034 200.122 205.076 199.823 205.199 199.553C205.323 199.284 205.523 199.057 205.774 198.9C206.026 198.743 206.318 198.664 206.614 198.672C207.021 198.696 207.402 198.879 207.676 199.181C207.951 199.482 208.096 199.879 208.082 200.287Z" fill="#F26E23"/>
<g opacity="0.2">
<path d="M170.663 200.118C170.641 200.413 170.533 200.695 170.352 200.93C170.172 201.164 169.926 201.341 169.646 201.437C169.366 201.533 169.064 201.545 168.778 201.471C168.491 201.398 168.232 201.241 168.034 201.022C167.835 200.802 167.705 200.529 167.66 200.237C167.615 199.944 167.657 199.645 167.781 199.376C167.904 199.107 168.104 198.88 168.356 198.723C168.607 198.567 168.899 198.488 169.195 198.496C169.604 198.518 169.987 198.701 170.262 199.005C170.537 199.309 170.681 199.709 170.663 200.118Z" fill="white"/>
<path d="M175.338 200.14C175.353 200.347 175.324 200.554 175.255 200.75C175.186 200.945 175.077 201.125 174.936 201.276C174.794 201.428 174.623 201.549 174.433 201.632C174.243 201.714 174.037 201.757 173.83 201.757C173.622 201.757 173.417 201.714 173.227 201.632C173.037 201.549 172.866 201.428 172.724 201.276C172.583 201.125 172.474 200.945 172.405 200.75C172.335 200.554 172.307 200.347 172.322 200.14C172.307 199.933 172.335 199.725 172.405 199.53C172.474 199.334 172.583 199.155 172.724 199.003C172.866 198.852 173.037 198.731 173.227 198.648C173.417 198.565 173.622 198.522 173.83 198.522C174.037 198.522 174.243 198.565 174.433 198.648C174.623 198.731 174.794 198.852 174.936 199.003C175.077 199.155 175.186 199.334 175.255 199.53C175.324 199.725 175.353 199.933 175.338 200.14Z" fill="white"/>
<path d="M180.021 200.162C179.999 200.457 179.891 200.739 179.711 200.974C179.53 201.208 179.285 201.385 179.005 201.481C178.725 201.577 178.423 201.589 178.136 201.515C177.849 201.442 177.591 201.285 177.392 201.066C177.193 200.846 177.063 200.573 177.018 200.281C176.974 199.988 177.016 199.689 177.139 199.42C177.263 199.151 177.463 198.924 177.714 198.767C177.965 198.611 178.257 198.532 178.553 198.54C178.961 198.564 179.344 198.748 179.618 199.051C179.892 199.354 180.037 199.753 180.021 200.162Z" fill="white"/>
<path d="M184.697 200.184C184.675 200.479 184.567 200.761 184.387 200.996C184.206 201.231 183.96 201.407 183.68 201.503C183.4 201.599 183.098 201.611 182.812 201.537C182.525 201.464 182.266 201.307 182.068 201.088C181.869 200.868 181.739 200.595 181.694 200.303C181.649 200.01 181.691 199.711 181.815 199.442C181.939 199.173 182.138 198.946 182.39 198.79C182.641 198.633 182.933 198.554 183.229 198.562C183.637 198.586 184.019 198.77 184.294 199.073C184.568 199.376 184.713 199.775 184.697 200.184Z" fill="white"/>
<path d="M189.372 200.199C189.352 200.494 189.245 200.777 189.065 201.013C188.885 201.248 188.64 201.426 188.36 201.523C188.08 201.621 187.778 201.634 187.491 201.561C187.204 201.487 186.944 201.332 186.745 201.112C186.545 200.893 186.415 200.62 186.369 200.327C186.324 200.034 186.366 199.734 186.489 199.465C186.613 199.196 186.813 198.968 187.064 198.812C187.316 198.655 187.608 198.576 187.904 198.584C188.311 198.608 188.692 198.791 188.966 199.093C189.241 199.394 189.386 199.791 189.372 200.199Z" fill="white"/>
<path d="M194.055 200.221C194.035 200.515 193.93 200.797 193.751 201.031C193.573 201.266 193.33 201.444 193.052 201.543C192.775 201.641 192.474 201.657 192.188 201.587C191.901 201.517 191.641 201.364 191.44 201.149C191.239 200.933 191.106 200.663 191.056 200.372C191.007 200.082 191.043 199.783 191.161 199.513C191.279 199.243 191.473 199.013 191.72 198.852C191.967 198.69 192.256 198.605 192.551 198.606C192.964 198.621 193.354 198.8 193.637 199.102C193.919 199.405 194.069 199.807 194.055 200.221Z" fill="white"/>
<path d="M198.731 200.243C198.745 200.449 198.717 200.657 198.648 200.853C198.578 201.048 198.47 201.227 198.328 201.379C198.187 201.531 198.016 201.652 197.825 201.734C197.635 201.817 197.43 201.86 197.222 201.86C197.015 201.86 196.81 201.817 196.62 201.734C196.429 201.652 196.258 201.531 196.117 201.379C195.975 201.227 195.866 201.048 195.797 200.853C195.728 200.657 195.7 200.449 195.714 200.243C195.7 200.036 195.728 199.828 195.797 199.632C195.866 199.437 195.975 199.258 196.117 199.106C196.258 198.954 196.429 198.833 196.62 198.751C196.81 198.668 197.015 198.625 197.222 198.625C197.43 198.625 197.635 198.668 197.825 198.751C198.016 198.833 198.187 198.954 198.328 199.106C198.47 199.258 198.578 199.437 198.648 199.632C198.717 199.828 198.745 200.036 198.731 200.243Z" fill="white"/>
<path d="M203.406 200.265C203.386 200.559 203.281 200.841 203.103 201.076C202.924 201.31 202.681 201.488 202.404 201.587C202.126 201.685 201.825 201.701 201.539 201.631C201.252 201.561 200.993 201.408 200.792 201.193C200.591 200.977 200.457 200.707 200.407 200.417C200.358 200.126 200.394 199.827 200.512 199.557C200.63 199.287 200.824 199.057 201.071 198.896C201.318 198.734 201.607 198.649 201.902 198.65C202.315 198.665 202.706 198.844 202.988 199.146C203.27 199.449 203.42 199.851 203.406 200.265Z" fill="white"/>
<path d="M208.082 200.287C208.062 200.582 207.955 200.865 207.775 201.101C207.595 201.337 207.35 201.514 207.07 201.611C206.79 201.709 206.488 201.722 206.201 201.649C205.914 201.576 205.654 201.42 205.455 201.2C205.255 200.981 205.125 200.708 205.079 200.415C205.034 200.122 205.076 199.823 205.199 199.553C205.323 199.284 205.523 199.057 205.774 198.9C206.026 198.743 206.318 198.664 206.614 198.672C207.021 198.696 207.402 198.879 207.676 199.181C207.951 199.482 208.096 199.879 208.082 200.287Z" fill="white"/>
</g>
<path d="M201.439 94.3263C201.949 94.1018 202.382 93.7323 202.683 93.2637C202.985 92.7952 203.142 92.2484 203.135 91.6913C203.154 91.3291 203.099 90.9669 202.973 90.6266C202.848 90.2864 202.654 89.9753 202.405 89.7122C202.155 89.4492 201.854 89.2397 201.521 89.0965C201.188 88.9533 200.829 88.8795 200.467 88.8795C200.104 88.8795 199.745 88.9533 199.412 89.0965C199.079 89.2397 198.778 89.4492 198.528 89.7122C198.279 89.9753 198.085 90.2864 197.96 90.6266C197.834 90.9669 197.779 91.3291 197.798 91.6913C197.787 92.2539 197.943 92.8073 198.246 93.2815C198.549 93.7557 198.986 94.1295 199.501 94.3557C195.391 94.9722 195.574 99.435 195.574 99.435L205.293 99.479C205.293 99.479 205.52 94.9355 201.439 94.3263Z" fill="#F26E23"/>
<path opacity="0.1" d="M201.439 94.3263C201.949 94.1018 202.382 93.7323 202.683 93.2637C202.985 92.7952 203.142 92.2484 203.135 91.6913C203.154 91.3291 203.099 90.9669 202.973 90.6266C202.848 90.2864 202.654 89.9753 202.405 89.7122C202.155 89.4492 201.854 89.2397 201.521 89.0965C201.188 88.9533 200.829 88.8795 200.467 88.8795C200.104 88.8795 199.745 88.9533 199.412 89.0965C199.079 89.2397 198.778 89.4492 198.528 89.7122C198.279 89.9753 198.085 90.2864 197.96 90.6266C197.834 90.9669 197.779 91.3291 197.798 91.6913C197.787 92.2539 197.943 92.8073 198.246 93.2815C198.549 93.7557 198.986 94.1295 199.501 94.3557C195.391 94.9722 195.574 99.435 195.574 99.435L205.293 99.479C205.293 99.479 205.52 94.9355 201.439 94.3263Z" fill="black"/>
<path d="M217.231 102.357L182.594 102.2L182.575 106.34L217.212 106.497L217.231 102.357Z" fill="#F26E23"/>
<path opacity="0.2" d="M217.231 102.357L182.594 102.2L182.575 106.34L217.212 106.497L217.231 102.357Z" fill="white"/>
<path d="M89.893 123.811H89.548L88.5498 123.885C88.0095 123.917 87.4723 123.988 86.9423 124.097C86.599 124.146 86.2584 124.212 85.922 124.296L84.7843 124.611C82.8479 125.205 81.0209 126.11 79.3748 127.29C77.1998 128.869 75.3837 130.89 74.0459 133.221C73.2596 134.565 72.6339 135.996 72.1816 137.486C71.7063 139.105 71.4326 140.776 71.3668 142.462C71.3231 143.348 71.3378 144.235 71.4109 145.119C71.4109 145.567 71.5356 146.015 71.5944 146.47C71.6437 146.928 71.7296 147.383 71.8513 147.828C72.5113 150.773 73.8505 153.523 75.7621 155.859C77.6737 158.195 80.1047 160.052 82.8613 161.282C84.8563 162.143 86.9947 162.623 89.1663 162.698C91.4092 162.822 93.6544 162.5 95.7723 161.752L96.4182 161.509H96.5063L96.5797 161.553L105.835 166.251L105.564 166.486C104.573 163.418 103.619 160.445 102.694 157.59V157.48L102.775 157.399C105.02 155.137 106.687 152.368 107.634 149.325C108.491 146.543 108.742 143.609 108.368 140.722C108.035 138.157 107.21 135.679 105.938 133.427C104.842 131.491 103.427 129.754 101.754 128.289C100.374 127.128 98.8464 126.156 97.211 125.397C95.9735 124.863 94.6848 124.457 93.3648 124.185L91.8968 123.943L90.8325 123.863L90.1866 123.818H89.9664C90.0395 123.81 90.1134 123.81 90.1866 123.818H90.8398L91.9041 123.863L93.3721 124.075C94.7085 124.327 96.0149 124.718 97.2697 125.242C98.9332 125.993 100.488 126.963 101.894 128.127C103.598 129.586 105.042 131.324 106.166 133.265C107.474 135.542 108.324 138.053 108.669 140.656C109.074 143.588 108.841 146.572 107.986 149.406C107.033 152.512 105.34 155.34 103.054 157.649L103.098 157.458C104.022 160.313 104.984 163.286 105.982 166.346L106.122 166.794L105.703 166.581L96.4476 161.891H96.6091L95.9485 162.133C93.7897 162.893 91.503 163.222 89.2177 163.102C86.9993 163.018 84.8162 162.52 82.7805 161.634C78.8974 159.971 75.6667 157.081 73.5835 153.406C72.6248 151.709 71.9247 149.878 71.5063 147.974C71.3917 147.518 71.3059 147.054 71.2494 146.587C71.1907 146.125 71.0952 145.67 71.0732 145.215C70.8746 142.603 71.1506 139.977 71.888 137.464C72.3515 135.953 72.9947 134.504 73.8037 133.148C75.1734 130.796 77.0274 128.762 79.2426 127.18C80.9159 125.997 82.7736 125.099 84.7403 124.523L85.8927 124.23C86.2318 124.151 86.5748 124.09 86.9203 124.046C87.4558 123.947 87.9981 123.888 88.5424 123.87L89.548 123.833C89.6623 123.818 89.7776 123.81 89.893 123.811Z" fill="#F26E23"/>
<path d="M94.0769 140.928H92.719L89.783 136.803V134.094C89.783 134.094 87.6838 133.962 87.9333 137.508C88.1829 141.053 87.9333 140.15 87.9333 140.15C87.9333 140.15 83.478 140.15 83.111 140.554C82.744 140.957 82.7219 145.259 82.6705 147.659C82.6424 148.237 82.8084 148.809 83.1422 149.282C83.476 149.756 83.9585 150.104 84.5129 150.272C84.6683 150.315 84.8287 150.337 84.99 150.338C86.1057 150.338 91.7795 149.435 91.7795 149.435H94.1209L94.0769 140.928Z" fill="#F26E23"/>
<path d="M97.9594 140.201L97.1227 149.479H94.8032V140.392L97.9594 140.201Z" fill="#F26E23"/>
<path d="M125.624 329.082V322.806L114.372 322.725L114.276 332.216L114.974 332.267C118.078 332.465 130.769 332.759 132.854 332.113C135.173 331.394 125.624 329.082 125.624 329.082Z" fill="#F26E23"/>
<path d="M133.119 331.526C133.119 331.629 128.905 331.717 123.716 331.717C118.527 331.717 114.313 331.629 114.313 331.526C114.313 331.423 118.527 331.335 123.716 331.335C128.905 331.335 133.119 331.423 133.119 331.526Z" fill="#263238"/>
<path d="M125.822 330.366C125.727 330.315 125.822 329.984 126.05 329.632C126.277 329.28 126.586 329.133 126.659 329.206C126.733 329.28 126.578 329.559 126.358 329.86C126.138 330.161 125.918 330.417 125.822 330.366Z" fill="#263238"/>
<path d="M126.542 330.777C126.439 330.777 126.49 330.366 126.71 329.977C126.931 329.588 127.224 329.353 127.305 329.412C127.386 329.471 127.254 329.801 127.048 330.146C126.843 330.491 126.637 330.814 126.542 330.777Z" fill="#263238"/>
<path d="M117.704 331.496C117.66 331.496 117.491 331.364 117.249 331.085C116.954 330.727 116.624 330.397 116.266 330.102C115.913 329.82 115.493 329.635 115.047 329.566C114.702 329.522 114.482 329.566 114.46 329.522C114.438 329.478 114.651 329.324 115.055 329.294C115.587 329.283 116.107 329.46 116.523 329.794C116.912 330.111 117.24 330.496 117.491 330.931C117.66 331.254 117.748 331.467 117.704 331.496Z" fill="#263238"/>
<path d="M125.859 329.184C125.91 329.272 125.719 329.493 125.397 329.61C125.074 329.727 124.787 329.683 124.773 329.61C124.758 329.537 124.986 329.382 125.264 329.28C125.543 329.177 125.8 329.096 125.859 329.184Z" fill="#263238"/>
<path d="M125.683 328.575C125.683 328.685 125.389 328.773 125.007 328.781C124.626 328.788 124.325 328.7 124.332 328.597C124.34 328.494 124.64 328.399 125.007 328.392C125.374 328.384 125.668 328.472 125.683 328.575Z" fill="#263238"/>
<path d="M153.332 329.082V322.806L142.08 322.725L141.985 332.12L142.682 332.172C145.787 332.37 158.485 332.759 160.562 332.113C162.882 331.394 153.332 329.082 153.332 329.082Z" fill="#F26E23"/>
<path d="M160.827 331.54C160.827 331.643 156.621 331.731 151.424 331.731C146.228 331.731 142.029 331.643 142.029 331.54C142.029 331.438 146.235 331.35 151.424 331.35C156.614 331.35 160.827 331.438 160.827 331.54Z" fill="#263238"/>
<path d="M153.531 330.366C153.443 330.315 153.531 329.984 153.758 329.632C153.986 329.28 154.294 329.133 154.367 329.206C154.441 329.28 154.287 329.559 154.067 329.86C153.846 330.161 153.626 330.417 153.531 330.366Z" fill="#263238"/>
<path d="M154.25 330.777C154.155 330.777 154.199 330.366 154.426 329.977C154.654 329.588 154.94 329.353 155.021 329.412C155.101 329.471 154.962 329.801 154.756 330.146C154.551 330.491 154.353 330.814 154.25 330.777Z" fill="#263238"/>
<path d="M145.413 331.496C145.369 331.496 145.207 331.364 144.958 331.085C144.662 330.727 144.333 330.397 143.974 330.102C143.622 329.82 143.202 329.635 142.756 329.566C142.418 329.522 142.191 329.566 142.169 329.522C142.147 329.478 142.359 329.324 142.763 329.294C143.296 329.283 143.816 329.46 144.231 329.794C144.622 330.109 144.951 330.495 145.2 330.931C145.369 331.254 145.457 331.467 145.413 331.496Z" fill="#263238"/>
<path d="M153.567 329.184C153.619 329.272 153.428 329.493 153.105 329.61C152.782 329.727 152.496 329.683 152.481 329.61C152.466 329.537 152.694 329.382 152.973 329.28C153.252 329.177 153.509 329.096 153.567 329.184Z" fill="#263238"/>
<path d="M153.406 328.575C153.406 328.685 153.112 328.773 152.731 328.781C152.349 328.788 152.055 328.7 152.063 328.597C152.07 328.494 152.364 328.399 152.731 328.392C153.098 328.384 153.406 328.472 153.406 328.575Z" fill="#263238"/>
<path d="M194.789 142.719C194.495 142.418 193.769 142.565 193.769 142.565C193.842 142.142 193.842 141.71 193.769 141.288C193.637 140.877 192.712 140.957 192.712 140.957C192.669 140.611 192.669 140.261 192.712 139.915C192.719 139.838 192.703 139.761 192.665 139.694C192.626 139.627 192.569 139.574 192.499 139.541C192.061 139.362 191.591 139.277 191.119 139.291C190.554 138.887 192.844 135.68 193.695 134.652C194.547 133.625 194.393 132.825 193.637 132.825C193.115 132.825 190.444 135.907 189.622 136.942C188.8 137.977 186.62 140.855 186.546 138.557C186.473 136.26 185.548 134.528 184.968 134.234C184.388 133.94 183.772 134.63 184.087 135.269C184.365 135.994 184.538 136.756 184.601 137.53C184.681 138.146 184.654 138.772 184.52 139.379C184.277 140.509 183.946 141.619 183.529 142.697H183.471C183.471 142.697 167.455 158.06 166.295 159.153C165.26 160.137 144.444 157.986 140.267 157.546C138.848 157.338 137.415 157.24 135.981 157.252C134.168 157.333 133.845 157.59 132.039 157.612C127.479 157.662 122.93 158.062 118.431 158.808C116.394 159.155 114.491 160.054 112.93 161.408C111.369 162.762 110.21 164.518 109.579 166.486C105.373 179.624 95.8458 210.724 94.165 228.193C92.8948 230.497 91.7481 232.866 90.7298 235.291C89.5481 238.506 89.8344 238.616 90.2307 238.689C91.3024 238.888 92.5208 233.118 92.9759 234.513C93.431 235.908 90.6638 241.391 91.7868 241.552C93.2548 241.758 94.4219 235.68 94.5613 235.196C94.7008 234.711 95.4274 234.865 95.2953 235.32C95.0825 235.966 93.0199 242.815 94.4586 243.035C95.2513 243.152 95.3394 241.706 95.3394 241.706C95.3394 241.706 96.8074 235.152 97.4753 235.284C98.1432 235.416 97.4313 239.284 97.0936 240.576C96.756 241.868 97.2257 242.521 97.9157 242.205C98.3855 241.985 99.5085 238.058 99.8168 236.781C100.125 235.504 100.896 231.966 101.931 234.014C102.966 236.062 104.536 237.251 105.182 237.28C105.328 237.263 105.465 237.203 105.576 237.108C105.687 237.013 105.767 236.886 105.806 236.745C105.845 236.604 105.84 236.454 105.793 236.315C105.746 236.176 105.659 236.055 105.542 235.966C104.986 235.424 104.51 234.806 104.125 234.131C103.783 233.606 103.535 233.025 103.391 232.414C103.096 231.196 102.923 229.952 102.878 228.7L102.76 227.966C104.404 219.826 109.139 195.934 115.972 180.674L118.776 186.443L119.994 190.715L112.522 209.161L144.393 208.742L139.636 190.436L145.413 171.352C151.659 171.492 167.697 171.727 170.369 170.516C173.731 169.048 191.119 147.086 191.119 147.086C192.252 146.206 193.338 145.265 194.371 144.268C194.371 144.268 195.428 143.38 194.789 142.719Z" fill="#FFBE9D"/>
<path d="M111.12 195.53C112.045 192.374 116.794 176.769 116.794 176.769C116.794 176.769 119.128 189.489 118.512 191.023C117.945 192.337 117.275 193.603 116.508 194.811C111.12 203.01 111.825 207.113 111.825 207.113L144.378 206.122C144.451 201.571 141.758 190.987 141.2 189.299C140.642 187.61 142.499 182.083 142.499 182.083C142.499 182.083 146.169 178.347 146.037 176.424C145.967 174.697 145.754 172.978 145.398 171.286L165.216 172.02L164.592 158.588L136.128 155.74C135.137 158.537 126.175 157.164 126.175 157.164C116.501 157.487 115.899 159.263 111.876 162.39C107.854 165.517 101.197 192.352 101.197 192.352L111.12 195.53Z" fill="#F26E23"/>
<path d="M130.366 192.352C129.802 192.453 129.227 192.482 128.656 192.44C127.591 192.44 126.131 192.367 124.523 192.205C122.916 192.044 121.462 191.816 120.427 191.611C119.857 191.537 119.297 191.394 118.761 191.185C119.335 191.185 119.908 191.239 120.471 191.346C121.514 191.479 122.96 191.662 124.56 191.824C126.16 191.985 127.613 192.095 128.663 192.169C129.235 192.176 129.805 192.237 130.366 192.352Z" fill="#263238"/>
<path d="M132.597 189.585C132.033 189.861 131.436 190.066 130.821 190.194C127.893 190.964 124.871 191.322 121.844 191.258C121.218 191.279 120.591 191.22 119.98 191.082C120.598 191.004 121.221 190.972 121.844 190.987C122.997 190.95 124.582 190.869 126.329 190.664C128.076 190.458 129.632 190.165 130.733 189.93C131.345 189.767 131.968 189.651 132.597 189.585Z" fill="#263238"/>
<path d="M143.548 177.239C143.533 177.799 143.457 178.355 143.321 178.898C143.13 179.918 142.836 181.313 142.462 182.839C142.088 184.366 141.728 185.775 141.405 186.73C141.275 187.276 141.083 187.805 140.833 188.308C140.873 187.75 140.977 187.198 141.141 186.664C141.42 185.519 141.735 184.197 142.088 182.751C142.44 181.305 142.778 179.984 143.057 178.839C143.156 178.288 143.321 177.751 143.548 177.239Z" fill="#263238"/>
<path d="M111.465 193.659C109.767 193.396 108.091 193.006 106.452 192.492C104.777 192.1 103.133 191.585 101.534 190.95C103.231 191.217 104.907 191.607 106.547 192.117C108.223 192.507 109.867 193.023 111.465 193.659Z" fill="#263238"/>
<path d="M145.75 171.125C145.473 171.172 145.19 171.172 144.914 171.125C144.147 171.046 143.394 170.866 142.675 170.589C141.474 170.138 140.381 169.44 139.466 168.542C138.551 167.643 137.834 166.563 137.361 165.37C136.838 164.059 136.615 162.647 136.707 161.238C136.74 160.076 137.088 158.944 137.713 157.964C138.153 157.304 138.81 156.818 139.57 156.592C139.773 156.535 139.983 156.508 140.194 156.511C140.341 156.511 140.414 156.511 140.414 156.511C140.414 156.511 140.106 156.511 139.614 156.709C138.917 156.967 138.325 157.45 137.933 158.082C136.935 159.652 136.656 162.522 137.72 165.201C138.216 166.465 138.991 167.599 139.988 168.519C140.806 169.272 141.747 169.878 142.77 170.31C143.731 170.69 144.73 170.963 145.75 171.125Z" fill="#263238"/>
<path d="M162.86 171.756C162.677 169.505 162.618 167.246 162.684 164.989C162.627 162.733 162.695 160.476 162.89 158.228C163.073 160.477 163.132 162.734 163.066 164.989C163.127 167.246 163.059 169.506 162.86 171.756Z" fill="#263238"/>
<path d="M135.937 156.562C136.018 154.925 136.187 153.076 136.187 153.076C136.187 153.076 140.238 152.628 140.481 148.444C140.723 144.26 140.481 134.608 140.481 134.608L133.141 130.85L124.993 137.258L126.248 158.177L133.72 158.654C134.292 158.67 134.846 158.459 135.261 158.066C135.677 157.674 135.92 157.133 135.937 156.562Z" fill="#FFBE9D"/>
<path d="M136.664 145.134C136.664 145.134 136.664 145.215 136.598 145.31C136.543 145.379 136.472 145.434 136.392 145.47C136.311 145.506 136.223 145.521 136.135 145.516C135.665 145.516 135.21 144.972 135.049 144.341C134.972 144.035 134.972 143.715 135.049 143.409C135.064 143.275 135.112 143.148 135.189 143.037C135.266 142.927 135.369 142.838 135.489 142.778C135.588 142.737 135.699 142.737 135.797 142.778C135.871 142.814 135.93 142.873 135.966 142.947C136.018 143.071 135.966 143.152 135.966 143.145C135.966 143.137 135.966 143.071 135.893 142.998C135.855 142.945 135.798 142.909 135.734 142.895C135.671 142.882 135.604 142.892 135.548 142.924C135.458 142.979 135.383 143.055 135.33 143.146C135.278 143.237 135.249 143.34 135.247 143.446C135.185 143.719 135.185 144.002 135.247 144.275C135.394 144.848 135.79 145.31 136.142 145.354C136.211 145.363 136.281 145.358 136.348 145.339C136.415 145.321 136.478 145.288 136.531 145.244C136.62 145.185 136.649 145.126 136.664 145.134Z" fill="#EB996E"/>
<path d="M142.998 132.348C142.433 130.424 140.385 129.47 138.52 128.942C135.68 128.134 132.612 127.782 129.837 128.802C127.063 129.823 123.73 131.614 123.73 134.674C122.093 134.542 121.154 135.973 120.508 137.75C120.095 138.832 119.848 139.97 119.774 141.126C119.568 145.134 118.445 150.668 115.847 153.604C114.379 155.241 112.346 156.371 111.509 158.412C110.775 160.181 111.157 162.28 110.474 164.071C109.865 165.649 108.522 166.772 107.538 168.145C106.536 169.702 105.946 171.488 105.825 173.336C105.703 175.183 106.052 177.032 106.841 178.707C107.635 180.339 108.754 181.793 110.128 182.979C111.502 184.165 113.103 185.059 114.834 185.607C118.263 186.65 121.919 186.685 125.367 185.709C127.955 185.091 130.369 183.894 132.428 182.208C134.535 180.488 135.982 178.092 136.524 175.426C137.045 172.431 136.208 169.385 135.584 166.405C133.632 156.988 134.19 156.496 136.656 147.754C136.715 147.6 136.744 147.439 136.788 147.284C136.832 147.13 136.854 147.057 136.884 146.939C136.954 146.594 136.99 146.242 136.994 145.89C136.633 146.024 136.242 146.052 135.867 145.972C135.491 145.891 135.146 145.705 134.872 145.435C134.598 145.147 134.407 144.79 134.319 144.403C134.231 144.015 134.25 143.611 134.373 143.233C134.546 142.819 134.805 142.447 135.131 142.14C135.457 141.833 135.844 141.597 136.267 141.449C137.082 141.111 137.955 140.935 138.755 140.561C140.451 139.754 141.625 138.08 142.425 136.326C143.083 135.11 143.286 133.7 142.998 132.348Z" fill="#263238"/>
<path d="M136.957 145.332C137.112 145.561 137.24 145.807 137.339 146.066C137.559 146.528 137.853 147.182 138.175 147.938L138.234 148.077H138.08L137.346 148.143C136.84 148.143 136.414 148.239 135.915 148.231C135.871 148.222 135.831 148.201 135.798 148.171C135.764 148.142 135.739 148.104 135.724 148.062C135.702 147.996 135.702 147.924 135.724 147.857C135.741 147.758 135.763 147.66 135.79 147.563L135.922 147.042C135.988 146.695 136.092 146.355 136.23 146.029C136.217 146.384 136.165 146.736 136.076 147.079L135.973 147.6C135.937 147.776 135.871 148.048 135.973 148.026C136.34 148.026 136.862 147.945 137.346 147.916L138.08 147.85L137.985 148.011C137.669 147.277 137.405 146.587 137.251 146.11C137.115 145.866 137.016 145.604 136.957 145.332Z" fill="#F26E23"/>
<path d="M111.825 207.113L144.378 206.122L158.544 261.421L155.938 324.854H138.726L140.833 262.772L128.245 224.274L130.182 327.313L112.787 327.57L110.959 230.718C110.878 228.024 109.997 221.954 110.328 219.283L111.825 207.113Z" fill="#263238"/>
<path d="M132.575 225.059C132.042 225.093 131.507 225.061 130.982 224.964C129.999 224.846 128.656 224.641 127.18 224.347C125.705 224.054 124.384 223.716 123.429 223.444C122.919 223.332 122.426 223.155 121.961 222.916C121.961 222.806 124.354 223.378 127.29 223.973C130.226 224.567 132.59 224.949 132.575 225.059Z" fill="#455A64"/>
<path d="M155.762 321.375C155.762 321.477 151.865 321.565 147.057 321.565C142.249 321.565 138.344 321.477 138.344 321.375C138.344 321.272 142.242 321.184 147.057 321.184C151.872 321.184 155.762 321.264 155.762 321.375Z" fill="#455A64"/>
<path d="M130.028 324.634C130.028 324.744 126.241 324.824 121.572 324.824C116.904 324.824 113.124 324.744 113.124 324.634C113.124 324.523 116.911 324.443 121.572 324.443C126.233 324.443 130.028 324.531 130.028 324.634Z" fill="#455A64"/>
<path d="M127.782 324.369C127.68 324.369 127.225 301.858 126.762 274.09C126.3 246.323 126.028 223.797 126.124 223.797C126.219 223.797 126.689 246.301 127.144 274.083C127.599 301.865 127.892 324.369 127.782 324.369Z" fill="#455A64"/>
<path d="M153.45 321.375C153.442 321.274 153.442 321.174 153.45 321.074V320.193C153.45 319.4 153.509 318.262 153.553 316.816C153.656 313.88 153.802 309.616 153.986 304.39C154.382 293.879 154.94 279.39 155.549 263.396C155.549 263.242 155.549 263.095 155.549 262.963V263.014C151.696 247.6 148.209 233.61 145.677 223.488L142.741 211.517C142.403 210.115 142.146 209.021 141.963 208.258C141.875 207.898 141.816 207.619 141.765 207.406C141.736 207.311 141.719 207.212 141.713 207.113C141.752 207.205 141.781 207.301 141.801 207.399C141.86 207.605 141.934 207.883 142.036 208.236C142.235 208.97 142.521 210.085 142.888 211.48C143.622 214.313 144.657 218.394 145.949 223.422C148.503 233.537 152.026 247.49 155.931 262.926V262.978C155.931 263.11 155.931 263.264 155.931 263.411C155.278 279.404 154.683 293.886 154.25 304.397C154.023 309.631 153.832 313.866 153.7 316.816C153.626 318.284 153.567 319.4 153.531 320.193C153.531 320.567 153.487 320.861 153.479 321.074C153.48 321.175 153.471 321.276 153.45 321.375Z" fill="#455A64"/>
<path d="M147.835 261.671C146.599 262.078 145.325 262.36 144.033 262.515C142.448 262.787 141.097 262.978 140.488 263.007V262.86C140.686 262.919 140.789 262.956 140.789 262.985C140.789 263.014 140.664 262.985 140.458 262.985H140.018L140.458 262.853C141.031 262.684 142.382 262.405 143.967 262.119C145.239 261.843 146.534 261.693 147.835 261.671Z" fill="#455A64"/>
<path d="M147.534 263.778C146.389 263.83 145.242 263.778 144.106 263.623C142.96 263.6 141.818 263.475 140.693 263.249C142.987 263.062 145.296 263.24 147.534 263.778Z" fill="#455A64"/>
<path opacity="0.2" d="M111.686 208.28C112.071 208.775 112.557 209.183 113.111 209.478C113.665 209.772 114.274 209.947 114.9 209.99C116.212 210.145 117.538 210.121 118.842 209.917C127.246 208.984 136.15 208.126 144.378 206.122C133.728 206.716 122.475 206.518 111.825 207.113L111.715 208.023" fill="black"/>
<g opacity="0.2">
<path d="M122.659 223.29L128.663 246.587L128.244 224.274L122.659 223.29Z" fill="black"/>
</g>
<defs>
<clipPath id="clip0_288_812">
<rect width="25.69" height="7.34" fill="white" transform="translate(185.401 232.422)"/>
</clipPath>
</defs>
</svg>
